<?xml version="1.0" encoding="utf-8"?>
<!-- Generator: Adobe Illustrator 26.3.1, SVG Export Plug-In . SVG Version: 6.00 Build 0)  -->
<svg version="1.1" id="Isolation_Mode" xmlns="http://www.w3.org/2000/svg" xmlns:xlink="http://www.w3.org/1999/xlink" x="0px"
	 y="0px" viewBox="0 0 162.6 39" style="enable-background:new 0 0 162.6 39;" xml:space="preserve">
<style type="text/css">
	.st0{fill:#E1251B;}
	.st1{fill:#FFFFFF;}
</style>
<g id="Group-2">
	<g id="Group-6-Copy-2">
		<path id="Fill-1" class="st0" d="M89.5,38.7H3c-1.7,0-3-1.3-3-3V3c0-1.7,1.3-3,3-3h86.5c1.7,0,3,1.3,3,3v32.7
			C92.5,37.4,91.1,38.7,89.5,38.7"/>
		<path id="Combined-Shape" class="st1" d="M28.5,6.1l4.8,10c2.9-1.1,5.8-2,8.8-2.7l0-6.5h7.1c0.7,0,1.3,0.1,1.9,0.3
			c2.1,0.6,3.9,2,4.8,3.9c1.6-0.1,3.2-0.2,4.8-0.3c2.2-2.5,5.4-4,9-4c4.4,0,8.2,2.3,10.3,5.8l0,0h-2.9c-1.8-2.1-4.4-3.4-7.4-3.4
			c-2,0-3.8,0.6-5.3,1.6c0.2,0,0.5,0,0.7,0c2.3,0.1,4.5,0.2,6.7,0.4l0,0l-0.7,0.2c-2.2-0.2-4.3-0.3-6.6-0.3
			c-22.6,0-43.2,8.6-58.2,23.2l0,0l-1.1-1.3C10,28.7,15.3,24.9,21,21.7L28.5,6.1z M63,11.9c-1.8,1.7-2.9,4.2-2.9,6.9
			c0,5.3,4.3,9.6,9.6,9.6c3.5,0,6.5-1.8,8.2-4.6l0,0h2.7c-1.9,4.1-6.1,7-10.9,7c-6.6,0-12.1-5.4-12.1-12c0-2.5,0.7-4.9,2.1-6.8
			C60.8,12,61.9,11.9,63,11.9z M56.3,12.2c0.2,0.7,0.3,1.5,0.3,2.2c0,3.7-2.6,6.7-6.1,7.4l0,0l6.3,9h-2.4l-7.8-11.2l2.5,0
			c2.9,0,5.2-2.3,5.2-5.3c0-0.7-0.1-1.4-0.4-2C54.8,12.4,55.6,12.3,56.3,12.2z M22.9,22.8l-3.8,8.1h-2.4l2.9-6.1
			C20.7,24.1,21.8,23.4,22.9,22.8L22.9,22.8z M34,17.5l6.4,13.4H38l-6-12.6C32.6,18,33.3,17.7,34,17.5L34,17.5z M44.4,14.2v16.6
			h-2.4v-16C42.8,14.6,43.6,14.4,44.4,14.2L44.4,14.2z M28.5,11l-4.3,9c2.3-1.2,4.6-2.2,7-3.2L28.5,11z M48.5,9.2h-4.1l0,3.5
			c2.9-0.6,5.9-1.1,8.9-1.5c-0.8-1.1-2.1-2-3.6-2C49.6,9.3,48.5,9.2,48.5,9.2L48.5,9.2z M84.3,7.2c1.3,0,2.4,1.1,2.4,2.4
			c0,1.3-1.1,2.4-2.4,2.4c-1.3,0-2.4-1.1-2.4-2.4C81.8,8.3,82.9,7.2,84.3,7.2z M84.3,7.6c-1.1,0-2.1,0.9-2.1,2.1
			c0,1.1,0.9,2.1,2.1,2.1c1.1,0,2.1-0.9,2.1-2.1C86.3,8.5,85.4,7.6,84.3,7.6z M84.5,8.4c0.5,0,0.8,0.2,0.8,0.7
			c0,0.5-0.4,0.6-0.4,0.6c0.2,0,0.3,0.2,0.3,0.6c0,0.3,0,0.5,0.1,0.6h-0.4c-0.1-0.1-0.1-0.2-0.1-0.4c0-0.5-0.1-0.6-0.5-0.6h-0.7v1
			h-0.4V8.4H84.5z M84.4,8.8h-0.7v0.7h0.7c0.3,0,0.4-0.1,0.4-0.4C84.8,8.8,84.6,8.8,84.4,8.8z"/>
	</g>
	<g>
		<path d="M102.3,8h2.7v21.8h-2.7V8z M103.7,19.6h5.7c1.6,0,2.8-0.4,3.6-1.2c0.9-0.8,1.3-1.9,1.3-3.4v0c0-1.4-0.4-2.6-1.3-3.4
			c-0.9-0.8-2.1-1.2-3.6-1.2h-5.7V8h6.4c1.4,0,2.6,0.3,3.6,0.9c1,0.6,1.9,1.4,2.5,2.4s0.9,2.3,0.9,3.6v0c0,1.4-0.3,2.6-0.9,3.7
			c-0.6,1.1-1.4,1.9-2.5,2.5c-1,0.6-2.3,0.9-3.6,0.9h-6.4V19.6z"/>
		<path d="M120.5,14.1h2.6v2.7h0.1c0.3-0.9,0.7-1.6,1.4-2.2c0.6-0.5,1.4-0.8,2.3-0.8c0.2,0,0.4,0,0.6,0c0.2,0,0.3,0,0.4,0.1v2.6
			c-0.1,0-0.3-0.1-0.5-0.1c-0.3,0-0.5,0-0.9,0c-0.7,0-1.3,0.2-1.8,0.5c-0.5,0.3-0.9,0.7-1.2,1.3c-0.3,0.6-0.4,1.3-0.4,2v9.7h-2.6
			V14.1z"/>
		<path d="M131.1,11c-0.3-0.3-0.5-0.7-0.5-1.2c0-0.5,0.2-0.9,0.5-1.2c0.3-0.3,0.7-0.5,1.2-0.5c0.5,0,0.9,0.2,1.2,0.5
			c0.3,0.3,0.5,0.7,0.5,1.2c0,0.5-0.2,0.8-0.5,1.2c-0.3,0.3-0.7,0.5-1.2,0.5C131.9,11.4,131.5,11.3,131.1,11z M131,14.1h2.6v15.7
			H131V14.1z"/>
		<path d="M138,14.1h2.6v2.2h0.1c0.4-0.7,1-1.3,1.8-1.8c0.8-0.5,1.8-0.7,3-0.7c1.7,0,3.1,0.5,4,1.6c1,1,1.4,2.5,1.4,4.2v10.2h-2.6
			v-9.7c0-1.3-0.3-2.3-0.9-2.9c-0.6-0.7-1.5-1-2.7-1c-0.8,0-1.5,0.2-2.2,0.6c-0.6,0.4-1.1,0.9-1.4,1.5c-0.3,0.7-0.5,1.4-0.5,2.3v9.2
			H138V14.1z"/>
		<path d="M156.9,29.1c-0.7-0.7-1.1-1.8-1.1-3.3v-9.5h-2.3v-2.2h2.3V9.9h2.7v4.2h3v2.2h-3v9.5c0,0.8,0.2,1.4,0.5,1.7
			c0.4,0.3,0.9,0.4,1.6,0.4c0.2,0,0.3,0,0.5,0c0.1,0,0.3,0,0.4,0V30c-0.2,0-0.4,0-0.6,0.1c-0.3,0-0.5,0-0.8,0
			C158.7,30.1,157.6,29.7,156.9,29.1z"/>
	</g>
</g>
</svg>
